<svg width="202" height="50" viewBox="0 0 202 50" fill="none" xmlns="http://www.w3.org/2000/svg">
<g clip-path="url(#clip0_510_4863)">
<path d="M49.8902 33.4456C49.8902 32.762 49.8415 29.637 47.6723 24.9739C48.306 23.5823 49.744 21.4339 49.744 15.5257C49.744 15.4524 49.744 15.3792 49.744 15.3059V15.3304C49.744 15.3304 49.744 15.2815 49.744 15.1839C49.7196 14.2806 49.5734 13.4749 49.3297 12.7913C48.7447 10.6184 47.3554 7.4202 44.065 4.53934C38.4348 -0.343478 34.7057 -0.00168111 33.3896 -0.00168111C32.7071 -0.00168111 29.5873 0.0471473 24.9077 2.22C23.5184 1.58523 21.3735 0.144803 15.4752 0.144803C15.4021 0.144803 15.329 0.144803 15.2558 0.144803H15.2802C15.2802 0.144803 15.2315 0.144803 15.134 0.144803C14.2322 0.169217 13.4279 0.315702 12.7454 0.559842C10.5762 1.14578 7.38329 2.53738 4.53161 5.83328C-0.343037 11.4973 -0.0018118 15.2083 -0.0018118 16.5266C-0.0018118 17.2102 0.046935 20.3352 2.21615 25.0227C1.58245 26.4143 0.144428 28.5628 0.144428 34.471C0.144428 34.5442 0.144428 34.6175 0.144428 34.6907V34.6663C0.144428 34.6663 0.144428 34.7151 0.144428 34.8128C0.168801 35.7161 0.315041 36.5218 0.558773 37.2054C1.14373 39.3782 2.53301 42.5765 5.8234 45.4573C11.4536 50.3401 15.1827 49.9983 16.4989 49.9983C17.1813 49.9983 20.3011 49.9495 24.9564 47.7767C26.3457 48.4114 28.4662 49.8763 34.4132 49.8763C34.4863 49.8763 34.5595 49.8763 34.6326 49.8763H34.6082C34.6082 49.8763 34.657 49.8763 34.7545 49.8763C35.6563 49.8519 36.4606 49.7054 37.143 49.4612C39.3123 48.8753 42.5052 47.4837 45.3568 44.1878C50.2559 38.4993 49.8902 34.764 49.8902 33.4456ZM10.0643 10.0813C11.2586 9.93485 13.6472 10.7405 13.6472 10.7405L10.7224 13.5725C9.94248 12.1321 10.0643 10.0813 10.0643 10.0813ZM10.1131 40.0618C10.1131 40.0618 9.99122 38.0599 10.7468 36.6438L13.5985 39.427C13.5985 39.427 11.283 40.2083 10.1131 40.0618ZM24.9808 31.5413L18.5462 25.1936L24.932 18.6995L31.4397 25.096L24.9808 31.5413ZM39.8728 9.91043C39.8728 9.91043 39.9947 11.9612 39.2391 13.3772L36.3143 10.5452C36.3143 10.5452 38.6786 9.73953 39.8728 9.91043ZM39.946 39.7933C38.7517 39.9397 36.3875 39.1585 36.3875 39.1585L39.3123 36.3265C40.0678 37.7425 39.946 39.7933 39.946 39.7933Z" fill="white"/>
<path d="M40.8252 40.7227C38.0223 41.1133 35.3656 39.8193 34.8294 39.5264C31.1003 42.9443 27.7368 45.044 24.9583 46.3379C26.25 46.9238 28.2486 48.291 33.8301 48.291C33.9032 48.291 33.9764 48.291 34.0495 48.291C34.3176 48.2422 40.3134 46.7285 40.8252 40.7227Z" fill="url(#paint0_radial_510_4863)"/>
<path d="M9.09119 9.25293C11.8697 8.8623 14.4533 10.1074 15.0626 10.4248C18.7917 7.00684 22.1553 4.90723 24.9338 3.61328C23.642 3.00293 21.619 1.66016 16.0863 1.66016C16.0132 1.66016 15.9401 1.66016 15.867 1.66016C15.5745 1.7334 9.57865 3.24707 9.09119 9.25293Z" fill="url(#paint1_radial_510_4863)"/>
<path d="M40.6545 9.10645C41.0445 11.8896 39.8015 14.4775 39.4846 15.0879C42.8969 18.8232 44.993 22.1924 46.2848 24.9756C46.8941 23.6816 48.2346 21.6553 48.2346 16.0889C48.2346 16.0156 48.2346 15.9424 48.2346 15.8936C48.1615 15.6006 46.6504 9.59473 40.6545 9.10645Z" fill="url(#paint2_linear_510_4863)"/>
<path d="M9.23743 40.8936C8.84746 38.1104 10.0905 35.5225 10.4073 34.9121C6.99509 31.1768 4.89899 27.8076 3.60721 25.0244C2.99788 26.3184 1.65735 28.3447 1.65735 33.8867C1.65735 33.96 1.65735 34.0332 1.65735 34.082C1.73047 34.375 3.24161 40.3809 9.23743 40.8936Z" fill="url(#paint3_linear_510_4863)"/>
<path d="M16.8175 25.0488C16.8175 25.0488 16.7931 25.0488 16.8175 25.0488C12.1622 19.6777 10.6998 16.3818 10.383 15.5518C9.55427 13.6963 9.04243 11.8408 9.04243 10.083C9.04243 9.79004 9.0668 9.52148 9.09118 9.25293C9.57864 3.24707 15.5745 1.7334 15.8669 1.66016H15.8913C15.8913 1.66016 15.8426 1.66016 15.7694 1.66016C14.9164 1.68457 14.1852 1.83105 13.5271 2.05078C11.5041 2.6123 8.48184 3.90625 5.80079 7.00684C1.19424 12.3291 1.53547 15.8203 1.53547 17.041C1.53547 17.7002 1.58421 20.6299 3.60719 25C4.89898 27.7832 6.99508 31.1523 10.4073 34.8877C11.7966 36.4258 13.4052 38.0127 15.282 39.6484C15.282 39.6484 15.4038 39.5996 15.6232 39.5264C16.6469 39.0625 17.6949 38.501 18.6942 37.8662C20.2785 36.8652 22.399 35.376 24.9582 33.1543C24.9825 33.1299 24.9825 33.1299 25.0069 33.1055C25.0069 33.1299 20.8635 29.6875 16.8175 25.0488Z" fill="url(#paint4_linear_510_4863)"/>
<path d="M48.2346 15.7713C48.2102 14.9168 48.064 14.1844 47.8446 13.5252C47.3084 11.4989 45.9923 8.47153 42.8969 5.78598C37.6079 1.22055 34.0981 1.53793 32.8794 1.53793C32.2214 1.53793 29.2966 1.58676 24.9338 3.61313C22.1552 4.90707 18.7917 7.00668 15.0626 10.4247C13.5271 11.8163 11.9428 13.4276 10.3098 15.3075C10.3098 15.3075 10.3342 15.3807 10.3829 15.5272C11.8453 18.8231 14.307 22.1678 16.8175 25.0243C17.0368 24.7801 20.376 20.7762 24.9094 16.8211C30.9296 11.5477 34.61 10.3026 34.61 10.3026C36.4136 9.52133 38.1684 9.05746 39.8502 9.05746C40.1427 9.05746 40.4108 9.08188 40.6789 9.10629C46.6747 9.61899 48.1859 15.6248 48.259 15.8934C48.2346 15.8446 48.2346 15.8202 48.2346 15.7713Z" fill="url(#paint5_linear_510_4863)"/>
<path d="M34.6099 10.3027C34.6099 10.3027 30.954 11.5479 24.885 16.8457C27.8342 14.2822 31.2464 11.7432 34.6099 10.3027Z" fill="url(#paint6_linear_510_4863)"/>
<path d="M16.7932 25.0488C16.7932 25.0488 16.8176 25.0488 16.7932 25.0488C14.3071 22.168 11.821 18.8232 10.3586 15.5273C10.6999 16.3818 12.1623 19.6777 16.7932 25.0488Z" fill="url(#paint7_linear_510_4863)"/>
<path d="M33.0745 24.9512C32.8551 25.1953 29.516 29.1992 25.0069 33.1543C24.9826 33.1787 24.9826 33.1787 24.9582 33.2031C23.0327 34.8877 20.8878 36.5479 18.6943 37.915C17.1587 38.8672 16.1107 39.3555 15.6232 39.5752C13.7221 40.4297 11.8454 40.9668 10.0661 40.9668C9.77364 40.9668 9.50554 40.9424 9.23743 40.918C3.24161 40.4053 1.73047 34.3994 1.65735 34.1309C1.65735 34.1797 1.65735 34.2041 1.65735 34.2529C1.68172 35.1074 1.82796 35.8398 2.04732 36.499C2.58353 38.5254 3.89969 41.5527 6.99509 44.2383C12.2841 48.8281 15.7695 48.4863 17.0125 48.4863C17.6706 48.4863 20.571 48.4375 24.9338 46.3867C27.7124 45.0928 31.0759 42.9932 34.805 39.5752C36.3405 38.1592 37.9491 36.5479 39.5821 34.668C38.1441 31.2744 35.6337 27.8809 33.0745 24.9512Z" fill="url(#paint8_linear_510_4863)"/>
<path d="M48.3565 32.9346C48.3565 32.2754 48.3077 29.3457 46.2847 24.9756C44.9929 22.1924 42.8968 18.8232 39.4846 15.0879C38.0953 13.5498 36.4623 11.9629 34.5856 10.3027C31.2221 11.7676 27.8098 14.2822 24.885 16.8457C25.08 17.0166 29.1016 20.3857 33.0744 24.9512C35.6336 27.8809 38.1441 31.2988 39.6065 34.6436C40.3864 36.4502 40.8495 38.2324 40.8495 39.917C40.8495 40.21 40.8251 40.4785 40.8007 40.7471C40.2889 46.7529 34.2931 48.2666 34.025 48.3398H34.0006C34.0006 48.3398 34.0494 48.3398 34.1225 48.3398C34.9755 48.3154 35.7067 48.1689 36.3648 47.9492C38.3878 47.4121 41.4101 46.0938 44.0911 42.9932C48.6977 37.6709 48.3565 34.1553 48.3565 32.9346Z" fill="url(#paint9_linear_510_4863)"/>
<path d="M25.007 33.1299C24.9826 33.1543 24.9826 33.1543 24.9583 33.1787C24.9826 33.1787 24.9826 33.1543 25.007 33.1299Z" fill="url(#paint10_linear_510_4863)"/>
<path d="M25.007 33.1299C24.9826 33.1543 24.9826 33.1543 24.9583 33.1787C24.9826 33.1787 24.9826 33.1543 25.007 33.1299Z" fill="url(#paint11_linear_510_4863)"/>
<path d="M15.6232 39.5508C16.1106 39.3311 17.1587 38.8428 18.6942 37.8906C17.6705 38.5254 16.6468 39.0869 15.6232 39.5508Z" fill="url(#paint12_linear_510_4863)"/>
<path d="M15.6232 39.5508C16.1106 39.3311 17.1587 38.8428 18.6942 37.8906C17.6705 38.5254 16.6468 39.0869 15.6232 39.5508Z" fill="url(#paint13_linear_510_4863)"/>
<path d="M192.744 4.76074H63.0049C58.3252 4.76074 54.4986 8.42285 54.4986 12.915V32.2021L54.4742 35.376V36.9629C54.4742 41.4551 58.3008 45.1172 62.9805 45.1172H192.744C197.448 45.1172 201.25 41.4551 201.25 36.9629V12.915C201.25 8.42285 197.423 4.76074 192.744 4.76074Z" fill="white"/>
<path fill-rule="evenodd" clip-rule="evenodd" d="M62.3225 9.83887C60.4701 9.83887 58.9834 11.3281 58.959 13.1836H119.307C119.307 11.3281 117.796 9.83887 115.944 9.83887H62.3225Z" fill="#F4AC37"/>
<path fill-rule="evenodd" clip-rule="evenodd" d="M62.2981 40.0391H115.968C117.82 40.0391 119.307 38.5498 119.307 36.6943H58.959C58.959 38.5254 60.4458 40.0391 62.2981 40.0391Z" fill="#F4AC37"/>
<path fill-rule="evenodd" clip-rule="evenodd" d="M74.0704 24.9512C74.0704 27.7344 71.8281 29.9805 69.0495 29.9805C66.271 29.9805 64.0286 27.7344 64.0286 24.9512C64.0286 22.168 66.271 19.9219 69.0495 19.9219C71.8037 19.9219 74.0704 22.168 74.0704 24.9512ZM117.625 24.9512C117.625 29.5898 113.872 33.3496 109.241 33.3496C104.61 33.3496 100.857 29.5898 100.857 24.9512C100.857 20.3125 104.61 16.5527 109.241 16.5527C113.872 16.5527 117.625 20.3125 117.625 24.9512ZM114.286 24.9512C114.286 27.7344 112.044 29.9805 109.265 29.9805C106.487 29.9805 104.245 27.7344 104.245 24.9512C104.245 22.168 106.487 19.9219 109.265 19.9219C112.02 19.9219 114.286 22.168 114.286 24.9512ZM77.4339 24.9512C77.4339 29.5898 73.6804 33.3496 69.0495 33.3496C64.4186 33.3496 60.6651 29.5898 60.6651 24.9512C60.6651 20.3125 64.4186 16.5527 69.0495 16.5527C73.6561 16.5527 77.4339 20.3125 77.4339 24.9512ZM70.8288 35.0098H58.959V14.8682H100.564C99.6136 15.0635 98.7118 16.3818 98.5899 16.5527L94.0321 22.3389L92.1797 19.9463L90.108 22.7295L91.9116 25.0732L89.2062 28.5645L87.5976 30.6396C87.4026 30.8838 87.2807 31.2012 87.2563 31.4941C87.2076 32.0557 87.427 32.6172 87.89 32.9834C88.3288 33.3252 88.865 33.4229 89.3524 33.2764C89.6937 33.1787 90.0105 32.9834 90.2299 32.6904L91.1317 31.5186L91.1561 31.4941L94.0321 27.8076L97.8587 32.7148C98.4193 33.4473 99.4917 33.5693 100.223 33.0078C100.954 32.4463 101.076 31.3965 100.515 30.6641L96.177 25.0977L101.49 18.1396C104.025 15.1611 106.584 14.917 107.827 14.917H119.307V35.0586H77.5802C78.5551 34.9121 79.5056 33.5205 79.6275 33.374L84.1853 27.5879L86.0621 30.0049L88.1582 27.2217L86.3302 24.8779L89.06 21.3867L90.6686 19.3115C90.8636 19.0674 90.9855 18.75 91.0098 18.457C91.0586 17.8955 90.8392 17.334 90.3761 16.9678C89.9374 16.626 89.4012 16.5283 88.9137 16.6748C88.5725 16.7725 88.2556 16.9678 88.0363 17.2607L87.1345 18.4326L87.1101 18.4814L84.2341 22.168L80.4075 17.2607C79.8469 16.5283 78.7744 16.4062 78.0676 16.9678C77.3364 17.5293 77.2146 18.6035 77.7751 19.3115L82.1136 24.8779L76.8002 31.8359C74.4604 34.4238 72.1693 34.9365 70.8288 35.0098Z" fill="#E2231A"/>
<path d="M193.426 8.30078C196.132 8.30078 198.325 10.498 198.325 13.1836V36.6943C198.325 39.4043 196.132 41.6016 193.426 41.6016H62.298C59.5926 41.6016 57.399 39.4043 57.399 36.7187V35.1807H57.4234V13.1836C57.4234 10.4736 59.617 8.30078 62.3224 8.30078H193.426ZM193.426 6.86035H62.3224C58.8614 6.86035 56.0097 9.69238 56.0097 13.1592V33.6914H55.9854V35.1074V36.6455C55.9854 40.1123 58.8127 42.9443 62.298 42.9443H193.402C196.887 42.9443 199.714 40.1123 199.714 36.6211V13.1836C199.714 9.69238 196.887 6.86035 193.426 6.86035Z" fill="#E2231A"/>
<path d="M196.765 29.248C196.765 26.0498 193.962 24.3164 188.649 23.5352L183.287 22.8027C179.997 22.3877 179.095 21.7041 178.997 20.4346C178.875 19.043 180.094 18.335 182.312 18.335H195.084V14.8682H181.483C177.462 14.8682 173.538 16.2109 173.44 20.5566C173.367 23.999 176.048 25.708 180.996 26.3428L186.87 27.1484C189.892 27.5146 191.111 28.1494 191.208 29.4434C191.306 30.7373 190.282 31.543 187.699 31.543H173.708V35.0098H188.6C193.719 35.0098 196.765 33.0322 196.765 29.248Z" fill="#E2231A"/>
<path d="M121.208 24.9023C121.208 31.9824 124.109 35.0098 130.884 35.0098H141.804C143.047 35.0098 144.07 33.9844 144.07 32.7393V24.1943H132.054V27.3193H138.879V31.543H132.444C127.18 31.543 126.424 28.5889 126.424 24.9023C126.424 21.2402 127.18 18.335 132.444 18.335H143.802V14.8682H130.86C124.084 14.8682 121.208 17.8711 121.208 24.9023Z" fill="#E2231A"/>
<path d="M161.595 14.8682C160.888 14.8682 159.84 16.0156 158.743 17.9687C158.865 18.2129 158.938 18.3594 158.938 18.3594L167.249 35.0342H172.953L164.714 18.5303C164.251 17.5049 162.692 14.8682 161.595 14.8682Z" fill="url(#paint14_linear_510_4863)"/>
<path d="M158.743 17.9443C159.815 16.0156 160.888 14.8682 161.595 14.8682H155.891C154.795 14.8682 153.259 17.5049 152.747 18.5059L144.509 35.0098H150.212L158.524 18.335C158.572 18.2861 158.743 17.9443 158.743 17.9443Z" fill="url(#paint15_linear_510_4863)"/>
</g>
<defs>
<radialGradient id="paint0_radial_510_4863" cx="0" cy="0" r="1" gradientUnits="userSpaceOnUse" gradientTransform="translate(32.8685 43.9047) scale(6.4313 6.44207)">
<stop stop-color="#F1E42C"/>
<stop offset="1" stop-color="#F4BD21"/>
</radialGradient>
<radialGradient id="paint1_radial_510_4863" cx="0" cy="0" r="1" gradientUnits="userSpaceOnUse" gradientTransform="translate(17.0344 6.0833) scale(6.43374 6.44451)">
<stop stop-color="#F1E42C"/>
<stop offset="1" stop-color="#F4BD21"/>
</radialGradient>
<linearGradient id="paint2_linear_510_4863" x1="43.8662" y1="25.0361" x2="43.8662" y2="9.09062" gradientUnits="userSpaceOnUse">
<stop stop-color="#D92629"/>
<stop offset="0.226" stop-color="#D42528"/>
<stop offset="0.4752" stop-color="#C72225"/>
<stop offset="0.7345" stop-color="#B11C20"/>
<stop offset="0.9829" stop-color="#951519"/>
</linearGradient>
<linearGradient id="paint3_linear_510_4863" x1="7.37446" y1="25.6096" x2="4.79111" y2="40.236" gradientUnits="userSpaceOnUse">
<stop stop-color="#D92629"/>
<stop offset="0.226" stop-color="#D42528"/>
<stop offset="0.4752" stop-color="#C72225"/>
<stop offset="0.7345" stop-color="#B11C20"/>
<stop offset="0.9829" stop-color="#951519"/>
</linearGradient>
<linearGradient id="paint4_linear_510_4863" x1="1.08003" y1="18.1094" x2="26.854" y2="22.6465" gradientUnits="userSpaceOnUse">
<stop stop-color="#E45C2A"/>
<stop offset="0.1003" stop-color="#E66729"/>
<stop offset="0.4908" stop-color="#EC8D26"/>
<stop offset="0.8045" stop-color="#F0A425"/>
<stop offset="1" stop-color="#F1AD24"/>
</linearGradient>
<linearGradient id="paint5_linear_510_4863" x1="48.2336" y1="13.2881" x2="10.296" y2="13.2881" gradientUnits="userSpaceOnUse">
<stop stop-color="#D92629"/>
<stop offset="0.4595" stop-color="#D92629"/>
<stop offset="0.5352" stop-color="#D92629"/>
<stop offset="0.6346" stop-color="#D42528"/>
<stop offset="0.7531" stop-color="#C62124"/>
<stop offset="0.8806" stop-color="#AE1B1F"/>
<stop offset="0.9829" stop-color="#951519"/>
</linearGradient>
<linearGradient id="paint6_linear_510_4863" x1="29.7442" y1="16.8442" x2="29.7442" y2="10.297" gradientUnits="userSpaceOnUse">
<stop stop-color="#E45C2A"/>
<stop offset="1" stop-color="#F1AD24"/>
</linearGradient>
<linearGradient id="paint7_linear_510_4863" x1="9.66018" y1="19.5999" x2="17.5262" y2="20.9846" gradientUnits="userSpaceOnUse">
<stop stop-color="#E45C2A"/>
<stop offset="0.1003" stop-color="#E66729"/>
<stop offset="0.4908" stop-color="#EC8D26"/>
<stop offset="0.8045" stop-color="#F0A425"/>
<stop offset="1" stop-color="#F1AD24"/>
</linearGradient>
<linearGradient id="paint8_linear_510_4863" x1="4.55484" y1="43.4744" x2="38.3577" y2="31.1918" gradientUnits="userSpaceOnUse">
<stop stop-color="#D92629"/>
<stop offset="0.4595" stop-color="#D92629"/>
<stop offset="0.5352" stop-color="#D92629"/>
<stop offset="0.6346" stop-color="#D42528"/>
<stop offset="0.7531" stop-color="#C62124"/>
<stop offset="0.8806" stop-color="#AE1B1F"/>
<stop offset="0.9829" stop-color="#951519"/>
</linearGradient>
<linearGradient id="paint9_linear_510_4863" x1="36.6318" y1="48.3204" x2="36.6318" y2="10.3002" gradientUnits="userSpaceOnUse">
<stop stop-color="#E45C2A"/>
<stop offset="1" stop-color="#F1AD24"/>
</linearGradient>
<linearGradient id="paint10_linear_510_4863" x1="24.9638" y1="33.1581" x2="25.0032" y2="33.165" gradientUnits="userSpaceOnUse">
<stop stop-color="#E45C2A"/>
<stop offset="0.1003" stop-color="#E66729"/>
<stop offset="0.4908" stop-color="#EC8D26"/>
<stop offset="0.8045" stop-color="#F0A425"/>
<stop offset="1" stop-color="#F1AD24"/>
</linearGradient>
<linearGradient id="paint11_linear_510_4863" x1="3.85514" y1="40.8644" x2="37.3163" y2="28.7057" gradientUnits="userSpaceOnUse">
<stop stop-color="#D92629"/>
<stop offset="0.4595" stop-color="#D92629"/>
<stop offset="0.5352" stop-color="#D92629"/>
<stop offset="0.6346" stop-color="#D42528"/>
<stop offset="0.7531" stop-color="#C62124"/>
<stop offset="0.8806" stop-color="#AE1B1F"/>
<stop offset="0.9829" stop-color="#951519"/>
</linearGradient>
<linearGradient id="paint12_linear_510_4863" x1="15.8058" y1="38.477" x2="18.5102" y2="38.953" gradientUnits="userSpaceOnUse">
<stop stop-color="#E45C2A"/>
<stop offset="0.1003" stop-color="#E66729"/>
<stop offset="0.4908" stop-color="#EC8D26"/>
<stop offset="0.8045" stop-color="#F0A425"/>
<stop offset="1" stop-color="#F1AD24"/>
</linearGradient>
<linearGradient id="paint13_linear_510_4863" x1="4.50242" y1="43.3297" x2="38.3092" y2="31.0456" gradientUnits="userSpaceOnUse">
<stop stop-color="#D92629"/>
<stop offset="0.4595" stop-color="#D92629"/>
<stop offset="0.5352" stop-color="#D92629"/>
<stop offset="0.6346" stop-color="#D42528"/>
<stop offset="0.7531" stop-color="#C62124"/>
<stop offset="0.8806" stop-color="#AE1B1F"/>
<stop offset="0.9829" stop-color="#951519"/>
</linearGradient>
<linearGradient id="paint14_linear_510_4863" x1="165.867" y1="35.012" x2="165.867" y2="14.8626" gradientUnits="userSpaceOnUse">
<stop stop-color="#E45C2A"/>
<stop offset="0.0710997" stop-color="#E66629"/>
<stop offset="0.3186" stop-color="#EB8527"/>
<stop offset="0.5603" stop-color="#EE9B25"/>
<stop offset="0.7913" stop-color="#F0A824"/>
<stop offset="1" stop-color="#F1AD24"/>
</linearGradient>
<linearGradient id="paint15_linear_510_4863" x1="153.05" y1="35.012" x2="153.05" y2="14.9058" gradientUnits="userSpaceOnUse">
<stop stop-color="#D22929"/>
<stop offset="0.4595" stop-color="#D22929"/>
<stop offset="0.5352" stop-color="#D22929"/>
<stop offset="0.6411" stop-color="#CD2728"/>
<stop offset="0.7671" stop-color="#BF2324"/>
<stop offset="0.9029" stop-color="#A71B1E"/>
<stop offset="0.9829" stop-color="#951519"/>
</linearGradient>
<clipPath id="clip0_510_4863">
<rect width="201.25" height="50" fill="white"/>
</clipPath>
</defs>
</svg>
